<svg width="64" height="22" viewBox="0 0 64 22" version="1.1" xmlns="http://www.w3.org/2000/svg" xmlns:xlink="http://www.w3.org/1999/xlink" xmlns:figma="http://www.figma.com/figma/ns">
<title>logo</title>
<desc>Created using Figma</desc>
<g id="Canvas" transform="translate(39 1445)" figma:type="canvas">
<g id="logo" figma:type="frame">
<g id="Vector" figma:type="vector">
<use xlink:href="#path0_fill" transform="translate(-39 -1445)"/>
</g>
</g>
</g>
<defs>
<path id="path0_fill" d="M 22.034 18.0234C 21.8499 18.0921 19.4146 18.9584 15.7848 19.865C 15.5617 19.923 14.2896 20.1948 14.0886 20.2373C 13.6368 20.333 13.0897 20.4028 12.5986 20.4584C 12.5958 20.4567 12.2705 20.4874 12.2677 20.486C 10.7152 20.6646 8.68325 20.5368 7.02572 20.1551C 2.10597 19.0205 -0.286902 13.9056 0.0274038 10.7184C 0.17834 9.17826 0.519241 7.13872 2.73665 5.28605C 3.96693 4.25885 5.32156 3.59846 6.83195 3.20092C 7.98314 2.89732 8.79101 2.81443 9.88176 2.71495C 10.0013 2.70425 10.4541 2.68283 10.568 2.68041C 10.6271 2.67834 11.3117 2.67489 11.3711 2.67558C 11.7838 2.68111 12.1714 2.70183 12.6103 2.74742C 16.3571 3.13702 22.8944 5.75647 26.3331 8.579C 23.1824 6.04936 19.6791 4.90508 16.3078 4.3977C 15.8795 4.33311 13.7094 4.18079 13.3364 4.17147C 9.6196 4.07994 6.69138 5.28328 4.8874 6.91905C 4.85424 6.95152 4.81832 6.98226 4.78551 7.01473C 3.80633 7.91378 3.25025 9.05772 3.32623 10.2683C 3.36319 10.7767 3.50307 11.2589 3.73898 11.7055C 4.19904 12.5783 5.01727 13.3129 6.05828 13.8144L 6.06173 13.8162C 6.06484 13.8175 6.0676 13.8189 6.06898 13.8234C 7.19772 14.3646 8.46462 14.6831 9.94324 14.5871C 10.2765 14.5905 10.9003 14.5104 11.3759 14.4047C 11.8242 14.3056 12.2384 14.2165 12.781 14.0718C 12.7989 14.0652 12.8152 14.0621 12.8314 14.0583C 14.2237 13.7119 15.8021 13.2069 17.288 12.6159C 17.3101 12.6076 17.327 12.6011 17.3495 12.5935C 17.3543 12.5914 17.3581 12.5897 17.3671 12.5866L 17.3764 12.5831C 17.9515 12.3462 18.5259 12.1099 19.1006 11.8733L 20.6918 11.1435L 20.8113 11.089L 20.8756 11.0603L 21.6313 10.7135L 25.3352 9.01489L 31.1623 6.3426L 31.2922 6.28181L 32.4151 5.7689C 32.6952 5.64214 32.9812 5.51815 33.2644 5.39277C 37.9924 3.33217 42.7098 1.79034 44.8029 1.13859C 44.8232 1.13341 44.8419 1.12374 44.8626 1.11856C 44.9186 1.10025 44.9697 1.08367 45.0212 1.06709C 45.2743 0.99007 45.4826 0.925137 45.6335 0.881618C 45.6967 0.862967 45.7465 0.849496 45.789 0.836026C 45.8138 0.829118 45.8345 0.823937 45.8522 0.81772C 45.8888 0.80874 45.9109 0.800796 45.9223 0.798724C 45.9271 0.797342 46.6821 0.634663 46.6821 0.634663C 49.2356 0.0316101 51.1228 -0.137631 54.0652 0.109669C 60.1192 0.618775 64.1192 7.11523 63.9973 11.2983C 63.9413 13.2048 63.8318 16.0163 60.2729 18.7477C 58.9266 19.7807 57.4594 20.3859 55.5753 20.8994C 54.2096 21.2718 53.3489 21.3098 51.9728 21.3858C 51.8264 21.394 50.9073 21.4182 50.7664 21.4155C 50.6939 21.4148 50.0507 21.3982 49.9792 21.3947C 49.4708 21.3844 48.9334 21.3419 48.4101 21.2918C 43.9035 20.8687 35.2756 17.431 31.3312 13.8362C 34.5924 16.8266 41.3175 18.6765 45.0982 19.4371C 45.5803 19.5372 46.4518 19.6446 46.8914 19.6854C 51.3656 20.1082 55.2026 19.1062 57.4618 17.2162C 57.5036 17.1803 57.5495 17.1433 57.5913 17.1077C 58.8178 16.0667 59.5424 14.7121 59.5075 13.2442C 59.4906 12.6284 59.3418 12.0395 59.0796 11.4896C 58.565 10.4103 57.6113 9.48635 56.3797 8.82803C 56.3797 8.82803 56.3766 8.82665 56.3738 8.82527C 56.3704 8.82389 56.3673 8.8225 56.3659 8.81801C 55.0302 8.10893 53.3675 7.70896 51.5777 7.75317C 51.1757 7.73314 50.6749 7.76975 50.0939 7.85368C 49.5454 7.9307 48.932 8.04676 48.2658 8.19735C 48.245 8.20253 48.2247 8.20771 48.2053 8.20978C 46.5081 8.56208 44.5753 9.09433 42.7519 9.73848C 42.7253 9.74815 42.7036 9.75644 42.6787 9.76335C 42.6697 9.76646 42.6652 9.76818 42.657 9.77129C 42.3665 9.86489 42.0726 9.95919 41.7852 10.0535C 37.2792 11.5242 34.0173 12.914 33.4664 13.1499C 33.1767 13.2742 32.8872 13.4031 32.8872 13.4031L 32.4113 13.6155L 25.1791 16.8225L 22.034 18.0234Z"/>
</defs>
</svg>
