<svg width="16" height="13" viewBox="0 0 16 13" version="1.1" xmlns="http://www.w3.org/2000/svg" xmlns:xlink="http://www.w3.org/1999/xlink" xmlns:figma="http://www.figma.com/figma/ns">
<title>twitter</title>
<desc>Created using Figma</desc>
<g id="Canvas" transform="translate(9 1245)" figma:type="canvas">
<g id="twitter" figma:type="frame">
<g id="Vector" figma:type="vector">
<use xlink:href="#path0_fill" transform="translate(-9 -1245)"/>
</g>
</g>
</g>
<defs>
<path id="path0_fill" d="M 5.02601 13C 11.0636 13 14.3673 7.99705 14.3673 3.66585C 14.3673 3.5251 14.3673 3.38435 14.3609 3.2436C 15.0012 2.78297 15.5582 2.20079 16 1.54183C 15.411 1.80413 14.7771 1.97687 14.1112 2.06004C 14.7899 1.65699 15.3085 1.01083 15.5582 0.24311C 14.9244 0.620571 14.2201 0.889272 13.471 1.03642C 12.8691 0.396653 12.0176 9.76202e-08 11.0764 9.76202e-08C 9.26451 9.76202e-08 7.79192 1.47146 7.79192 3.28199C 7.79192 3.53789 7.82393 3.7874 7.87515 4.03051C 5.14766 3.89616 2.72749 2.58465 1.10764 0.601378C 0.82593 1.0876 0.665866 1.65059 0.665866 2.25197C 0.665866 3.39075 1.2485 4.39518 2.12565 4.98376C 1.58784 4.96457 1.08203 4.81742 0.640256 4.57431C 0.640256 4.58711 0.640256 4.5999 0.640256 4.61909C 0.640256 6.20571 1.77351 7.53642 3.27171 7.83711C 2.9964 7.91388 2.70828 7.95226 2.40736 7.95226C 2.19608 7.95226 1.9912 7.93307 1.79272 7.89469C 2.20888 9.1998 3.42537 10.1467 4.85954 10.1722C 3.73269 11.0551 2.31773 11.5797 0.781113 11.5797C 0.518608 11.5797 0.256102 11.5669 -9.76953e-08 11.5349C 1.44698 12.4562 3.17567 13 5.02601 13Z"/>
</defs>
</svg>
