<svg width="342" height="13" viewBox="0 0 342 13" version="1.1" xmlns="http://www.w3.org/2000/svg" xmlns:xlink="http://www.w3.org/1999/xlink" xmlns:figma="http://www.figma.com/figma/ns">
<title>type</title>
<desc>Created using Figma</desc>
<g id="Canvas" transform="translate(178 1393)" figma:type="canvas">
<g id="type" figma:type="vector">
<use xlink:href="#path0_fill" transform="translate(-177.833 -1392.05)"/>
<use xlink:href="#path1_fill" transform="translate(-177.833 -1392.05)"/>
<use xlink:href="#path2_fill" transform="translate(-177.833 -1392.05)"/>
<use xlink:href="#path3_fill" transform="translate(-177.833 -1392.05)"/>
<use xlink:href="#path4_fill" transform="translate(-177.833 -1392.05)"/>
<use xlink:href="#path5_fill" transform="translate(-177.833 -1392.05)"/>
<use xlink:href="#path6_fill" transform="translate(-177.833 -1392.05)"/>
<use xlink:href="#path7_fill" transform="translate(-177.833 -1392.05)"/>
<use xlink:href="#path8_fill" transform="translate(-177.833 -1392.05)"/>
<use xlink:href="#path9_fill" transform="translate(-177.833 -1392.05)"/>
<use xlink:href="#path10_fill" transform="translate(-177.833 -1392.05)"/>
<use xlink:href="#path11_fill" transform="translate(-177.833 -1392.05)"/>
<use xlink:href="#path12_fill" transform="translate(-177.833 -1392.05)"/>
<use xlink:href="#path13_fill" transform="translate(-177.833 -1392.05)"/>
<use xlink:href="#path14_fill" transform="translate(-177.833 -1392.05)"/>
<use xlink:href="#path15_fill" transform="translate(-177.833 -1392.05)"/>
<use xlink:href="#path16_fill" transform="translate(-177.833 -1392.05)"/>
<use xlink:href="#path17_fill" transform="translate(-177.833 -1392.05)"/>
</g>
</g>
<defs>
<path id="path0_fill" d="M 9.03906 0.140625L 9.03906 0.84375L 4.94531 0.84375L 4.94531 11.0547L 4.09375 11.0547L 4.09375 0.84375L 0 0.84375L 0 0.140625L 9.03906 0.140625Z"/>
<path id="path1_fill" d="M 20.8031 0.140625L 20.8031 11.0547L 19.9594 11.0547L 19.9594 0.140625L 20.8031 0.140625Z"/>
<path id="path2_fill" d="M 37.8797 5.21094L 42.0359 0.140625L 42.8875 0.140625L 42.8875 11.0547L 42.0359 11.0547L 42.0359 1.375L 37.8797 6.47656L 33.7156 1.375L 33.7156 11.0547L 32.8719 11.0547L 32.8719 0.140625L 33.7156 0.140625L 37.8797 5.21094Z"/>
<path id="path3_fill" d="M 60.9719 0.140625L 60.9719 0.84375L 55.8625 0.84375L 55.8625 5.21094L 60.8391 5.21094L 60.8391 5.92188L 55.8625 5.92188L 55.8625 10.3516L 61.0969 10.3516L 61.0969 11.0547L 55.0188 11.0547L 55.0188 0.140625L 60.9719 0.140625Z"/>
<path id="path4_fill" d="M 73.2906 0.140625L 73.2906 10.3516L 78.6891 10.3516L 78.6891 11.0547L 72.4469 11.0547L 72.4469 0.140625L 73.2906 0.140625Z"/>
<path id="path5_fill" d="M 95.5312 0.140625L 95.5312 0.84375L 90.4219 0.84375L 90.4219 5.21094L 95.3984 5.21094L 95.3984 5.92188L 90.4219 5.92188L 90.4219 10.3516L 95.6562 10.3516L 95.6562 11.0547L 89.5781 11.0547L 89.5781 0.140625L 95.5312 0.140625Z"/>
<path id="path6_fill" d="M 112.139 0.6875L 112.139 1.61719C 111.191 1.0599 110.376 0.78125 109.694 0.78125C 109.038 0.78125 108.488 0.981771 108.045 1.38281C 107.608 1.77865 107.389 2.27083 107.389 2.85938C 107.389 3.28125 107.519 3.66146 107.78 4C 108.04 4.33854 108.584 4.66406 109.413 4.97656C 110.241 5.28906 110.845 5.54948 111.225 5.75781C 111.605 5.96615 111.928 6.26823 112.194 6.66406C 112.459 7.0599 112.592 7.57292 112.592 8.20312C 112.592 9.04167 112.285 9.75 111.67 10.3281C 111.056 10.9062 110.306 11.1953 109.42 11.1953C 108.514 11.1953 107.582 10.8776 106.623 10.2422L 106.623 9.25C 107.681 10.026 108.597 10.4141 109.373 10.4141C 110.019 10.4141 110.564 10.2057 111.006 9.78906C 111.454 9.36719 111.678 8.85156 111.678 8.24219C 111.678 7.77865 111.54 7.36198 111.264 6.99219C 110.988 6.61719 110.428 6.26823 109.584 5.94531C 108.741 5.6224 108.136 5.36198 107.772 5.16406C 107.413 4.96615 107.105 4.6849 106.85 4.32031C 106.6 3.95052 106.475 3.47656 106.475 2.89844C 106.475 2.09635 106.782 1.41406 107.397 0.851562C 108.011 0.283854 108.751 0 109.616 0C 110.465 0 111.306 0.229167 112.139 0.6875Z"/>
<path id="path7_fill" d="M 129.255 0.6875L 129.255 1.61719C 128.307 1.0599 127.492 0.78125 126.809 0.78125C 126.153 0.78125 125.604 0.981771 125.161 1.38281C 124.723 1.77865 124.505 2.27083 124.505 2.85938C 124.505 3.28125 124.635 3.66146 124.895 4C 125.156 4.33854 125.7 4.66406 126.528 4.97656C 127.356 5.28906 127.96 5.54948 128.341 5.75781C 128.721 5.96615 129.044 6.26823 129.309 6.66406C 129.575 7.0599 129.708 7.57292 129.708 8.20312C 129.708 9.04167 129.401 9.75 128.786 10.3281C 128.171 10.9062 127.421 11.1953 126.536 11.1953C 125.63 11.1953 124.697 10.8776 123.739 10.2422L 123.739 9.25C 124.796 10.026 125.713 10.4141 126.489 10.4141C 127.135 10.4141 127.679 10.2057 128.122 9.78906C 128.57 9.36719 128.794 8.85156 128.794 8.24219C 128.794 7.77865 128.656 7.36198 128.38 6.99219C 128.104 6.61719 127.544 6.26823 126.7 5.94531C 125.856 5.6224 125.252 5.36198 124.888 5.16406C 124.528 4.96615 124.221 4.6849 123.966 4.32031C 123.716 3.95052 123.591 3.47656 123.591 2.89844C 123.591 2.09635 123.898 1.41406 124.513 0.851562C 125.127 0.283854 125.867 0 126.731 0C 127.58 0 128.421 0.229167 129.255 0.6875Z"/>
<path id="path8_fill" d="M 155.275 0.140625L 158.283 0.140625C 159.434 0.140625 160.314 0.398438 160.923 0.914062C 161.538 1.42969 161.845 2.13281 161.845 3.02344C 161.845 3.92448 161.535 4.63802 160.916 5.16406C 160.301 5.6901 159.397 5.95312 158.205 5.95312L 156.119 5.95312L 156.119 11.0547L 155.275 11.0547L 155.275 0.140625ZM 156.119 0.84375L 156.119 5.25L 158.15 5.25C 159.061 5.25 159.754 5.05729 160.228 4.67188C 160.702 4.28646 160.939 3.74219 160.939 3.03906C 160.939 2.36719 160.707 1.83333 160.244 1.4375C 159.78 1.04167 159.116 0.84375 158.252 0.84375L 156.119 0.84375Z"/>
<path id="path9_fill" d="M 173.047 0.140625L 175.844 0.140625C 177.016 0.140625 177.911 0.395833 178.531 0.90625C 179.151 1.41146 179.461 2.09635 179.461 2.96094C 179.461 4.22135 178.768 5.10677 177.383 5.61719C 177.742 5.78906 178.227 6.34375 178.836 7.28125L 181.305 11.0547L 180.312 11.0547L 178.406 8.0625C 177.771 7.0625 177.276 6.4401 176.922 6.19531C 176.568 5.94531 176.049 5.82031 175.367 5.82031L 173.891 5.82031L 173.891 11.0547L 173.047 11.0547L 173.047 0.140625ZM 173.891 0.84375L 173.891 5.11719L 175.703 5.11719C 176.625 5.11719 177.328 4.93229 177.812 4.5625C 178.302 4.1875 178.547 3.65885 178.547 2.97656C 178.547 2.30469 178.299 1.78125 177.805 1.40625C 177.31 1.03125 176.599 0.84375 175.672 0.84375L 173.891 0.84375Z"/>
<path id="path10_fill" d="M 197.131 0C 198.746 0 200.113 0.544271 201.233 1.63281C 202.358 2.71615 202.92 4.03906 202.92 5.60156C 202.92 7.15885 202.358 8.48177 201.233 9.57031C 200.113 10.6536 198.746 11.1953 197.131 11.1953C 195.522 11.1953 194.157 10.6536 193.038 9.57031C 191.923 8.48177 191.366 7.15885 191.366 5.60156C 191.366 4.03906 191.923 2.71615 193.038 1.63281C 194.157 0.544271 195.522 0 197.131 0ZM 197.163 10.4141C 198.522 10.4141 199.668 9.95052 200.6 9.02344C 201.538 8.09115 202.006 6.95052 202.006 5.60156C 202.006 4.2474 201.538 3.10677 200.6 2.17969C 199.668 1.2474 198.522 0.78125 197.163 0.78125C 195.798 0.78125 194.642 1.2474 193.694 2.17969C 192.751 3.10677 192.28 4.2474 192.28 5.60156C 192.28 6.95052 192.751 8.09115 193.694 9.02344C 194.642 9.95052 195.798 10.4141 197.163 10.4141Z"/>
<path id="path11_fill" d="M 219.567 5.21094L 223.723 0.140625L 224.575 0.140625L 224.575 11.0547L 223.723 11.0547L 223.723 1.375L 219.567 6.47656L 215.403 1.375L 215.403 11.0547L 214.559 11.0547L 214.559 0.140625L 215.403 0.140625L 219.567 5.21094Z"/>
<path id="path12_fill" d="M 242.003 0C 243.618 0 244.985 0.544271 246.105 1.63281C 247.23 2.71615 247.792 4.03906 247.792 5.60156C 247.792 7.15885 247.23 8.48177 246.105 9.57031C 244.985 10.6536 243.618 11.1953 242.003 11.1953C 240.394 11.1953 239.029 10.6536 237.909 9.57031C 236.795 8.48177 236.238 7.15885 236.238 5.60156C 236.238 4.03906 236.795 2.71615 237.909 1.63281C 239.029 0.544271 240.394 0 242.003 0ZM 242.034 10.4141C 243.394 10.4141 244.54 9.95052 245.472 9.02344C 246.409 8.09115 246.878 6.95052 246.878 5.60156C 246.878 4.2474 246.409 3.10677 245.472 2.17969C 244.54 1.2474 243.394 0.78125 242.034 0.78125C 240.67 0.78125 239.514 1.2474 238.566 2.17969C 237.623 3.10677 237.152 4.2474 237.152 5.60156C 237.152 6.95052 237.623 8.09115 238.566 9.02344C 239.514 9.95052 240.67 10.4141 242.034 10.4141Z"/>
<path id="path13_fill" d="M 267.298 0.140625L 267.298 0.84375L 263.205 0.84375L 263.205 11.0547L 262.353 11.0547L 262.353 0.84375L 258.259 0.84375L 258.259 0.140625L 267.298 0.140625Z"/>
<path id="path14_fill" d="M 279.062 0.140625L 279.062 11.0547L 278.219 11.0547L 278.219 0.140625L 279.062 0.140625Z"/>
<path id="path15_fill" d="M 296.475 0C 298.09 0 299.457 0.544271 300.577 1.63281C 301.702 2.71615 302.264 4.03906 302.264 5.60156C 302.264 7.15885 301.702 8.48177 300.577 9.57031C 299.457 10.6536 298.09 11.1953 296.475 11.1953C 294.866 11.1953 293.501 10.6536 292.381 9.57031C 291.267 8.48177 290.709 7.15885 290.709 5.60156C 290.709 4.03906 291.267 2.71615 292.381 1.63281C 293.501 0.544271 294.866 0 296.475 0ZM 296.506 10.4141C 297.866 10.4141 299.011 9.95052 299.944 9.02344C 300.881 8.09115 301.35 6.95052 301.35 5.60156C 301.35 4.2474 300.881 3.10677 299.944 2.17969C 299.011 1.2474 297.866 0.78125 296.506 0.78125C 295.142 0.78125 293.985 1.2474 293.038 2.17969C 292.095 3.10677 291.623 4.2474 291.623 5.60156C 291.623 6.95052 292.095 8.09115 293.038 9.02344C 293.985 9.95052 295.142 10.4141 296.506 10.4141Z"/>
<path id="path16_fill" d="M 323.755 0.140625L 323.755 11.0547L 323.052 11.0547L 314.763 1.51562L 314.763 11.0547L 313.919 11.0547L 313.919 0.140625L 314.638 0.140625L 322.911 9.67969L 322.911 0.140625L 323.755 0.140625Z"/>
<path id="path17_fill" d="M 341.011 0.6875L 341.011 1.61719C 340.063 1.0599 339.248 0.78125 338.566 0.78125C 337.909 0.78125 337.36 0.981771 336.917 1.38281C 336.48 1.77865 336.261 2.27083 336.261 2.85938C 336.261 3.28125 336.391 3.66146 336.652 4C 336.912 4.33854 337.456 4.66406 338.284 4.97656C 339.113 5.28906 339.717 5.54948 340.097 5.75781C 340.477 5.96615 340.8 6.26823 341.066 6.66406C 341.331 7.0599 341.464 7.57292 341.464 8.20312C 341.464 9.04167 341.157 9.75 340.542 10.3281C 339.928 10.9062 339.178 11.1953 338.292 11.1953C 337.386 11.1953 336.454 10.8776 335.495 10.2422L 335.495 9.25C 336.553 10.026 337.469 10.4141 338.245 10.4141C 338.891 10.4141 339.435 10.2057 339.878 9.78906C 340.326 9.36719 340.55 8.85156 340.55 8.24219C 340.55 7.77865 340.412 7.36198 340.136 6.99219C 339.86 6.61719 339.3 6.26823 338.456 5.94531C 337.613 5.6224 337.008 5.36198 336.644 5.16406C 336.284 4.96615 335.977 4.6849 335.722 4.32031C 335.472 3.95052 335.347 3.47656 335.347 2.89844C 335.347 2.09635 335.654 1.41406 336.269 0.851562C 336.883 0.283854 337.623 0 338.488 0C 339.337 0 340.178 0.229167 341.011 0.6875Z"/>
</defs>
</svg>
